<svg width="16" height="16" viewBox="0 0 16 16" fill="none" xmlns="http://www.w3.org/2000/svg">
<path d="M7.10741 0.0508411C9.26099 -0.188376 11.3732 0.42204 13.0473 1.7666C14.7255 3.11529 15.7713 5.02903 15.9945 7.15723C16.0235 7.42119 15.9367 7.68928 15.7548 7.88725C15.5688 8.09347 15.3084 8.20896 15.0314 8.20896H13.8079C13.6921 8.20896 13.6012 8.11822 13.6012 8.00274C13.6012 7.88725 13.6921 7.79651 13.8079 7.79651H15.0314C15.1926 7.79651 15.3414 7.73052 15.4489 7.61092C15.5522 7.49956 15.6018 7.35108 15.5853 7.2026C15.3745 5.18575 14.3825 3.371 12.791 2.09243C11.2038 0.81386 9.20312 0.23644 7.15701 0.463284C3.66417 0.846856 0.853359 3.65559 0.464806 7.13248C0.220927 9.32668 0.890564 11.4301 2.35384 13.0593C3.78818 14.6554 5.83841 15.5752 7.98372 15.5876C9.60821 15.5793 11.1542 15.0679 12.4562 14.1069C12.5472 14.0409 12.6794 14.0615 12.7456 14.1523C12.8117 14.243 12.791 14.375 12.7001 14.441C11.3402 15.4432 9.73221 15.9794 8.03746 16H7.92585C5.68134 15.9753 3.5443 15.006 2.04382 13.3356C0.502011 11.6199 -0.204828 9.40092 0.0514517 7.09124C0.456539 3.41637 3.42443 0.455035 7.10741 0.0508411Z" fill="white"/>
<path fill-rule="evenodd" clip-rule="evenodd" d="M11.7407 8.97198H10.9429L10.8975 11.8261C10.8975 11.8261 10.9388 12.5644 9.72766 12.3911C9.14897 12.3086 8.69428 12.2344 8.37599 12.1808C8.06598 12.1272 7.78077 12.3458 7.7477 12.6592L7.60715 14.0038C8.87202 14.078 10.1245 13.7604 11.2116 13.0634C11.3067 13.0015 11.4348 13.0304 11.4968 13.1253C11.5588 13.2201 11.5299 13.348 11.4348 13.4099C10.3808 14.0821 9.17791 14.4327 7.95438 14.4327C7.85708 14.4327 7.75741 14.4256 7.65897 14.4185C7.62776 14.4163 7.59667 14.4141 7.56582 14.4121V14.4286C7.51723 14.4259 7.47041 14.4197 7.42304 14.4134C7.39788 14.4101 7.37256 14.4067 7.34675 14.4039C7.27234 14.3956 7.20207 14.3874 7.1318 14.3791C7.01194 14.3626 6.89208 14.342 6.77221 14.3214C6.7445 14.3165 6.7174 14.3129 6.69047 14.3093C6.64911 14.3038 6.60807 14.2984 6.56551 14.2884C6.50736 14.2752 6.4509 14.2586 6.39397 14.2419C6.36187 14.2325 6.32961 14.2231 6.29682 14.2141H6.29269C4.72608 13.8017 3.38268 12.8407 2.50223 11.4714C1.56805 10.0196 1.25804 8.29145 1.62592 6.60869C1.99381 4.92592 2.99412 3.48649 4.44913 2.55437C5.49491 1.88622 6.67711 1.54801 7.88824 1.53976C8.02051 1.53976 8.15277 1.54389 8.28504 1.54801C8.45452 1.55626 8.62814 1.57276 8.80175 1.59338C9.07456 1.62638 9.34738 1.66762 9.60779 1.73361C10.2774 1.90271 10.8355 2.39764 11.0669 3.0493C11.4472 4.12578 11.3728 5.16926 11.3728 5.16926L12.3111 8.22958C12.4103 8.60491 12.1293 8.97198 11.7407 8.97198ZM5.63546 5.12802C5.90001 5.12802 6.11494 5.34249 6.11494 5.60645C6.11494 5.83742 6.30095 6.01889 6.5283 6.01889C6.75564 6.01889 6.94165 5.83329 6.94165 5.60645C6.94165 4.8888 6.3547 4.30313 5.63546 4.30313C4.91622 4.30313 4.32926 4.8888 4.32926 5.60645C4.32926 7.10362 4.76741 7.86251 5.63546 7.86251C5.8628 7.86251 6.04881 7.67691 6.04881 7.45007C6.04881 7.22322 5.8628 7.03762 5.63546 7.03762C5.31718 7.03762 5.15597 6.55507 5.15597 5.60645C5.15597 5.34249 5.37091 5.12802 5.63546 5.12802ZM9.34738 6.26223C9.72353 6.26223 10.0997 6.11788 10.3849 5.83329C10.5461 5.67244 10.5461 5.4126 10.3766 5.25175C10.2154 5.0909 9.95501 5.0909 9.7938 5.25175C9.54579 5.49921 9.1407 5.49921 8.89269 5.25175C8.73148 5.0909 8.47107 5.0909 8.30986 5.25175C8.14865 5.4126 8.14865 5.67244 8.30986 5.83329C8.59508 6.11788 8.97123 6.26223 9.34738 6.26223Z" fill="white"/>
</svg>
