<svg viewBox="0 80 392 40" fill="none" xmlns="http://www.w3.org/2000/svg">
<g clip-path="url(#clip0_11_795)">
<path d="M108.222 101.607H99.1408C98.6642 101.607 98.279 101.213 98.279 100.727V84.74C98.279 84.2533 97.8938 83.86 97.4172 83.86H94.3618C93.8852 83.8533 93.5 84.2533 93.5 84.74V105.127C93.5 105.613 93.8852 106.007 94.3618 106.007H108.222C108.699 106.007 109.084 105.613 109.084 105.127V102.493C109.09 102.007 108.705 101.607 108.222 101.607Z" fill="#4AC3BE"/>
<path d="M129.205 83.8533H126.163C125.686 83.8533 125.301 84.2467 125.301 84.7333V105.12C125.301 105.607 125.686 106 126.163 106H129.205C129.682 106 130.067 105.607 130.067 105.12V84.74C130.074 84.2533 129.682 83.8533 129.205 83.8533Z" fill="#4AC3BE"/>
<path d="M161.79 95.0733C161.196 94.56 160.471 94.1133 159.616 93.7467C158.754 93.38 157.775 93.0467 156.678 92.7533C155.744 92.5 154.974 92.28 154.36 92.0867C153.747 91.8933 153.27 91.6933 152.917 91.4867C152.565 91.2733 152.323 91.04 152.186 90.7733C152.049 90.5133 151.984 90.2 151.984 89.84V89.78C151.984 89.2333 152.219 88.7733 152.682 88.4C153.146 88.0333 153.845 87.8467 154.772 87.8467C155.699 87.8467 156.632 88.04 157.559 88.4333C158.258 88.7267 158.976 89.1 159.701 89.56C160.099 89.8133 160.628 89.72 160.895 89.32L162.41 87.0733C162.678 86.6733 162.599 86.1133 162.208 85.84C161.281 85.18 160.282 84.66 159.218 84.2733C157.886 83.7867 156.423 83.5467 154.83 83.5467C153.714 83.5467 152.695 83.7067 151.768 84.02C150.841 84.3333 150.045 84.7933 149.379 85.38C148.713 85.9667 148.197 86.6667 147.832 87.48C147.459 88.2933 147.277 89.2067 147.277 90.22V90.28C147.277 91.38 147.446 92.2933 147.792 93.0333C148.132 93.7733 148.615 94.3933 149.235 94.8867C149.856 95.38 150.613 95.8 151.501 96.1333C152.389 96.4733 153.388 96.78 154.484 97.0533C155.398 97.2867 156.136 97.5067 156.704 97.72C157.272 97.9333 157.716 98.14 158.042 98.3533C158.362 98.5667 158.578 98.7933 158.695 99.0333C158.806 99.2733 158.865 99.5533 158.865 99.8733V99.9333C158.865 100.587 158.591 101.1 158.042 101.467C157.494 101.833 156.724 102.02 155.731 102.02C154.491 102.02 153.348 101.78 152.304 101.293C151.494 100.913 150.698 100.433 149.914 99.8533C149.536 99.5733 149.02 99.62 148.72 99.98L146.989 102.093C146.683 102.473 146.722 103.047 147.094 103.353C148.217 104.267 149.444 104.967 150.77 105.453C152.363 106.033 153.982 106.32 155.633 106.32C156.815 106.32 157.886 106.167 158.852 105.86C159.818 105.553 160.654 105.113 161.352 104.533C162.051 103.953 162.593 103.233 162.985 102.38C163.376 101.527 163.572 100.553 163.572 99.4533V99.3867C163.572 98.4133 163.422 97.5867 163.122 96.8867C162.828 96.2 162.377 95.5933 161.79 95.0733Z" fill="#4AC3BE"/>
<path d="M195.687 83.8533H179.437C178.96 83.8533 178.575 84.2467 178.575 84.7333V87.4667C178.575 87.9533 178.96 88.3467 179.437 88.3467H184.307C184.784 88.3467 185.169 88.74 185.169 89.2267V105.12C185.169 105.607 185.554 106 186.031 106H189.073C189.55 106 189.935 105.607 189.935 105.12V89.2333C189.935 88.7467 190.32 88.3533 190.797 88.3533H195.667C196.144 88.3533 196.529 87.96 196.529 87.4733V84.74C196.555 84.2533 196.17 83.8533 195.687 83.8533Z" fill="#4AC3BE"/>
<path d="M264.205 83.8533H261.189C260.719 83.8533 260.34 84.24 260.34 84.72V96.28C260.34 96.6733 259.85 96.84 259.615 96.5267L250.691 84.5467C250.364 84.1133 249.861 83.86 249.326 83.86H246.617C246.147 83.86 245.768 84.2467 245.768 84.7267V105.153C245.768 105.633 246.147 106.02 246.617 106.02H249.633C250.103 106.02 250.482 105.633 250.482 105.153V93.1533C250.482 92.76 250.971 92.5933 251.206 92.9067L260.477 105.333C260.803 105.767 261.306 106.02 261.835 106.02H264.198C264.668 106.02 265.047 105.633 265.047 105.153V84.72C265.054 84.24 264.668 83.8533 264.205 83.8533Z" fill="#4AC3BE"/>
<path d="M297.886 96.8933C297.586 96.1933 297.142 95.5933 296.548 95.0733C295.954 94.56 295.229 94.1133 294.374 93.7467C293.512 93.38 292.533 93.0467 291.436 92.7533C290.502 92.5 289.732 92.28 289.118 92.0867C288.505 91.8933 288.028 91.6933 287.676 91.4867C287.323 91.2733 287.081 91.04 286.944 90.7733C286.807 90.5133 286.742 90.2 286.742 89.84V89.78C286.742 89.2333 286.977 88.7733 287.44 88.4C287.904 88.0333 288.603 87.8467 289.53 87.8467C290.457 87.8467 291.39 88.04 292.317 88.4333C293.029 88.7333 293.747 89.1133 294.485 89.5733C294.87 89.82 295.373 89.7267 295.634 89.3467L297.194 87.0467C297.455 86.66 297.377 86.1267 297.005 85.86C296.071 85.1933 295.066 84.6667 293.989 84.2733C292.657 83.7867 291.194 83.5467 289.601 83.5467C288.485 83.5467 287.467 83.7067 286.54 84.02C285.612 84.3333 284.816 84.7933 284.15 85.38C283.484 85.9733 282.962 86.6733 282.596 87.4867C282.224 88.3 282.041 89.2133 282.041 90.2267V90.2867C282.041 91.3867 282.211 92.3 282.557 93.04C282.897 93.78 283.38 94.4 284 94.8933C284.62 95.3867 285.377 95.8067 286.265 96.14C287.153 96.48 288.152 96.7867 289.249 97.06C290.163 97.2933 290.901 97.5133 291.469 97.7267C292.037 97.94 292.481 98.1467 292.807 98.36C293.127 98.5733 293.342 98.8 293.46 99.04C293.571 99.28 293.63 99.56 293.63 99.88V99.94C293.63 100.593 293.355 101.107 292.807 101.473C292.259 101.84 291.488 102.027 290.496 102.027C289.255 102.027 288.113 101.787 287.068 101.3C286.246 100.92 285.443 100.433 284.653 99.84C284.294 99.5667 283.791 99.6133 283.504 99.9667L281.734 102.127C281.434 102.493 281.473 103.047 281.839 103.34C282.968 104.267 284.202 104.973 285.534 105.46C287.127 106.04 288.746 106.327 290.398 106.327C291.58 106.327 292.65 106.173 293.617 105.867C294.583 105.56 295.419 105.12 296.117 104.54C296.816 103.96 297.358 103.24 297.749 102.387C298.141 101.533 298.337 100.56 298.337 99.46V99.3933C298.337 98.4267 298.187 97.5933 297.886 96.8933Z" fill="#4AC3BE"/>
<path d="M227.083 96.5H228.343C228.957 96.5 229.401 95.9067 229.244 95.3L227.762 90.3533C227.762 90.3533 227.879 88.6667 227.279 86.9267C226.913 85.8733 226.032 85.0733 224.974 84.8C224.563 84.6933 224.132 84.6267 223.701 84.5733C223.427 84.54 223.153 84.5133 222.885 84.5C222.676 84.4933 222.467 84.4867 222.258 84.4867C220.345 84.5 218.478 85.0467 216.826 86.1267C214.528 87.6333 212.948 89.96 212.367 92.68C211.786 95.4 212.276 98.1933 213.751 100.54C215.142 102.753 217.264 104.307 219.738 104.973H219.745C219.888 105.013 220.025 105.06 220.169 105.093C220.28 105.12 220.385 105.127 220.496 105.147C220.685 105.18 220.874 105.213 221.064 105.24C221.175 105.253 221.286 105.267 221.403 105.28C221.521 105.293 221.632 105.313 221.749 105.32V105.293C221.951 105.307 222.16 105.327 222.363 105.327C224.295 105.327 226.195 104.76 227.86 103.673C228.01 103.573 228.056 103.367 227.958 103.213C227.86 103.06 227.657 103.013 227.507 103.113C225.79 104.24 223.812 104.753 221.814 104.633L222.036 102.46C222.089 101.953 222.539 101.6 223.029 101.687C223.531 101.773 224.25 101.893 225.164 102.027C227.076 102.307 227.011 101.113 227.011 101.113L227.083 96.5ZM219.457 91.06C219.457 90.6333 219.118 90.2867 218.7 90.2867C218.282 90.2867 217.943 90.6333 217.943 91.06C217.943 92.5933 218.197 93.3733 218.7 93.3733C219.059 93.3733 219.353 93.6733 219.353 94.04C219.353 94.4067 219.059 94.7067 218.7 94.7067C217.329 94.7067 216.637 93.48 216.637 91.06C216.637 89.9 217.564 88.9533 218.7 88.9533C219.836 88.9533 220.763 89.9 220.763 91.06C220.763 91.4267 220.469 91.7267 220.11 91.7267C219.751 91.7267 219.457 91.4333 219.457 91.06ZM226.202 91.4267C225.751 91.8867 225.157 92.12 224.563 92.12C223.969 92.12 223.375 91.8867 222.924 91.4267C222.67 91.1667 222.67 90.7467 222.924 90.4867C223.179 90.2267 223.59 90.2267 223.845 90.4867C224.236 90.8867 224.876 90.8867 225.268 90.4867C225.523 90.2267 225.934 90.2267 226.189 90.4867C226.456 90.7467 226.456 91.1667 226.202 91.4267Z" fill="#4AC3BE"/>
<path d="M230.406 84.8533C227.762 82.68 224.426 81.6933 221.024 82.08C215.207 82.7333 210.52 87.52 209.88 93.46C209.475 97.1933 210.592 100.78 213.027 103.553C215.397 106.253 218.772 107.82 222.317 107.86C222.324 107.86 222.33 107.86 222.343 107.86H222.467C222.474 107.86 222.48 107.86 222.493 107.86C225.17 107.827 227.71 106.96 229.858 105.34C230.001 105.233 230.034 105.02 229.929 104.873C229.825 104.727 229.616 104.693 229.472 104.8C227.416 106.353 224.974 107.18 222.408 107.193C219.02 107.173 215.782 105.687 213.516 103.107C211.205 100.473 210.148 97.0733 210.533 93.5267C211.147 87.9067 215.586 83.3667 221.103 82.7467C224.334 82.38 227.494 83.3133 230.001 85.38C232.515 87.4467 234.082 90.38 234.415 93.64C234.441 93.88 234.362 94.12 234.199 94.3C234.029 94.4933 233.794 94.6 233.54 94.6H231.607C231.425 94.6 231.281 94.7467 231.281 94.9333C231.281 95.12 231.425 95.2667 231.607 95.2667H233.54C233.977 95.2667 234.389 95.08 234.682 94.7467C234.97 94.4267 235.107 93.9933 235.061 93.5667C234.708 90.1267 233.057 87.0333 230.406 84.8533Z" fill="#4AC3BE"/>
</g>
</svg>
