<svg width="126" height="16" viewBox="0 0 126 16" fill="none" xmlns="http://www.w3.org/2000/svg">
<path d="M9.05597 12.1314H3.46978C3.17662 12.1314 2.93968 11.888 2.93968 11.5869V1.69657C2.93968 1.39549 2.70274 1.15215 2.40957 1.15215H0.530106C0.236941 1.14803 0 1.39549 0 1.69657V14.3091C0 14.6102 0.236941 14.8535 0.530106 14.8535H9.05597C9.34914 14.8535 9.58608 14.6102 9.58608 14.3091V12.6799C9.59009 12.3788 9.35315 12.1314 9.05597 12.1314Z" fill="white"/>
<path d="M21.9636 1.14795H20.0921C19.799 1.14795 19.562 1.39129 19.562 1.69237V14.3049C19.562 14.606 19.799 14.8493 20.0921 14.8493H21.9636C22.2567 14.8493 22.4937 14.606 22.4937 14.3049V1.6965C22.4977 1.39541 22.2567 1.14795 21.9636 1.14795Z" fill="white"/>
<path d="M42.0068 8.08939C41.6413 7.7718 41.1956 7.49547 40.6695 7.26863C40.1394 7.04178 39.537 6.83556 38.8623 6.65408C38.288 6.49736 37.8141 6.36125 37.4366 6.24164C37.0591 6.12203 36.766 5.9983 36.5491 5.87044C36.3322 5.73846 36.1836 5.59411 36.0993 5.42913C36.015 5.26828 35.9748 5.07443 35.9748 4.85171V4.81459C35.9748 4.47639 36.1194 4.1918 36.4045 3.96083C36.6897 3.73399 37.1194 3.61851 37.6896 3.61851C38.2599 3.61851 38.8342 3.73812 39.4044 3.98146C39.8341 4.16293 40.2759 4.3939 40.7217 4.67848C40.9666 4.83521 41.2919 4.77747 41.4566 4.53001L42.3883 3.14007C42.5529 2.89261 42.5048 2.54616 42.2638 2.37705C41.6935 1.96874 41.0791 1.64703 40.4245 1.40781C39.6052 1.10673 38.7057 0.958252 37.7258 0.958252C37.039 0.958252 36.4126 1.05724 35.8423 1.25109C35.272 1.44493 34.7821 1.72952 34.3725 2.09247C33.9628 2.45542 33.6456 2.88848 33.4207 3.39166C33.1918 3.89484 33.0793 4.45989 33.0793 5.0868V5.12392C33.0793 5.80445 33.1837 6.3695 33.3966 6.82731C33.6054 7.28512 33.9026 7.66869 34.2841 7.9739C34.6656 8.27911 35.1315 8.53895 35.6776 8.74517C36.2238 8.95552 36.8382 9.14524 37.5129 9.31434C38.0752 9.4587 38.529 9.5948 38.8783 9.72678C39.2277 9.85876 39.5008 9.98662 39.7016 10.1186C39.8984 10.2506 40.0309 10.3908 40.1032 10.5393C40.1715 10.6878 40.2076 10.861 40.2076 11.059V11.0961C40.2076 11.5003 40.039 11.8179 39.7016 12.0447C39.3643 12.2716 38.8904 12.387 38.28 12.387C37.5169 12.387 36.8142 12.2386 36.1716 11.9375C35.6736 11.7024 35.1837 11.4054 34.7018 11.0466C34.4688 10.8734 34.1516 10.9022 33.9668 11.125L32.9026 12.4324C32.7139 12.6675 32.738 13.0222 32.9669 13.2119C33.6576 13.777 34.4126 14.21 35.2278 14.5111C36.2077 14.8699 37.2037 15.0473 38.2197 15.0473C38.9466 15.0473 39.6052 14.9524 40.1996 14.7627C40.794 14.573 41.308 14.3008 41.7377 13.9419C42.1674 13.5831 42.5007 13.1377 42.7417 12.6098C42.9827 12.0818 43.1031 11.4797 43.1031 10.7991V10.7579C43.1031 10.1557 43.0108 9.64429 42.826 9.21123C42.6453 8.78641 42.3682 8.41109 42.0068 8.08939Z" fill="white"/>
<path d="M62.8571 1.14795H52.8614C52.5682 1.14795 52.3313 1.39129 52.3313 1.69237V3.38339C52.3313 3.68447 52.5682 3.92781 52.8614 3.92781H55.8573C56.1505 3.92781 56.3874 4.17115 56.3874 4.47224V14.3049C56.3874 14.606 56.6244 14.8493 56.9175 14.8493H58.789C59.0821 14.8493 59.3191 14.606 59.3191 14.3049V4.47636C59.3191 4.17528 59.556 3.93194 59.8492 3.93194H62.8451C63.1382 3.93194 63.3752 3.6886 63.3752 3.38751V1.6965C63.3912 1.39541 63.1543 1.14795 62.8571 1.14795Z" fill="white"/>
<path d="M105.005 1.14795H103.15C102.861 1.14795 102.628 1.38717 102.628 1.68412V8.83588C102.628 9.07922 102.327 9.18233 102.182 8.98848L96.6923 1.57689C96.4915 1.3088 96.1823 1.15207 95.853 1.15207H94.1864C93.8972 1.15207 93.6643 1.39129 93.6643 1.68825V14.3255C93.6643 14.6224 93.8972 14.8617 94.1864 14.8617H96.0417C96.3309 14.8617 96.5638 14.6224 96.5638 14.3255V6.90152C96.5638 6.65818 96.865 6.55507 97.0096 6.74892L102.712 14.4369C102.913 14.7049 103.222 14.8617 103.548 14.8617H105.001C105.29 14.8617 105.523 14.6224 105.523 14.3255V1.68412C105.527 1.38717 105.29 1.14795 105.005 1.14795Z" fill="white"/>
<path d="M125.723 9.21535C125.538 8.78229 125.265 8.41109 124.9 8.08939C124.534 7.7718 124.088 7.49547 123.562 7.26863C123.032 7.04178 122.43 6.83556 121.755 6.65408C121.181 6.49736 120.707 6.36125 120.329 6.24164C119.952 6.12203 119.659 5.9983 119.442 5.87044C119.225 5.73846 119.076 5.59411 118.992 5.42913C118.908 5.26828 118.868 5.07443 118.868 4.85171V4.81459C118.868 4.47639 119.012 4.1918 119.297 3.96083C119.582 3.73399 120.012 3.61851 120.582 3.61851C121.153 3.61851 121.727 3.73812 122.297 3.98146C122.735 4.16706 123.177 4.40215 123.63 4.68673C123.867 4.83934 124.177 4.7816 124.337 4.5465L125.297 3.12358C125.458 2.88436 125.41 2.55441 125.181 2.38943C124.606 1.97699 123.988 1.65116 123.325 1.40781C122.506 1.10673 121.606 0.958252 120.627 0.958252C119.94 0.958252 119.313 1.05724 118.743 1.25109C118.173 1.44493 117.683 1.72952 117.273 2.09247C116.864 2.45954 116.542 2.89261 116.317 3.39579C116.089 3.89897 115.976 4.46401 115.976 5.09093V5.12805C115.976 5.80858 116.08 6.37362 116.293 6.83144C116.502 7.28925 116.799 7.67282 117.181 7.97803C117.562 8.28323 118.028 8.54307 118.574 8.74929C119.121 8.95964 119.735 9.14936 120.41 9.31846C120.972 9.46282 121.426 9.59893 121.775 9.73091C122.125 9.86289 122.398 9.99075 122.598 10.1227C122.795 10.2547 122.928 10.3949 123 10.5434C123.068 10.6919 123.104 10.8651 123.104 11.0631V11.1002C123.104 11.5044 122.936 11.822 122.598 12.0488C122.261 12.2757 121.787 12.3912 121.177 12.3912C120.414 12.3912 119.711 12.2427 119.068 11.9416C118.562 11.7065 118.068 11.4054 117.582 11.0384C117.362 10.8692 117.052 10.8981 116.876 11.1167L115.787 12.453C115.603 12.6799 115.627 13.0222 115.852 13.2037C116.546 13.777 117.305 14.2142 118.125 14.5152C119.105 14.8741 120.1 15.0514 121.116 15.0514C121.843 15.0514 122.502 14.9566 123.096 14.7668C123.691 14.5771 124.205 14.3049 124.634 13.9461C125.064 13.5872 125.398 13.1418 125.638 12.6139C125.879 12.086 126 11.4838 126 10.8033V10.762C126 10.164 125.908 9.64842 125.723 9.21535Z" fill="white"/>
<path d="M82.1704 8.97201H82.9455C83.323 8.97201 83.5961 8.60494 83.4997 8.22962L82.5881 5.16929C82.5881 5.16929 82.6604 4.12581 82.2909 3.04934C82.066 2.39768 81.5238 1.90274 80.8733 1.73364C80.6203 1.66765 80.3552 1.62641 80.0901 1.59341C79.9215 1.57279 79.7528 1.55629 79.5882 1.54804C79.4596 1.54392 79.3311 1.53979 79.2026 1.53979C78.0259 1.54804 76.8774 1.88625 75.8613 2.5544C74.4477 3.48652 73.4759 4.92595 73.1185 6.60872C72.761 8.29148 73.0622 10.0196 73.9698 11.4714C74.8252 12.8407 76.1304 13.8017 77.6525 14.2142H77.6565C77.7448 14.2389 77.8292 14.2678 77.9175 14.2884C77.9858 14.3049 78.05 14.309 78.1183 14.3214C78.2348 14.342 78.3512 14.3626 78.4677 14.3791C78.536 14.3874 78.6042 14.3956 78.6765 14.4039C78.7488 14.4121 78.8171 14.4245 78.8894 14.4286V14.4121C79.0139 14.4204 79.1424 14.4328 79.2669 14.4328C80.4556 14.4328 81.6242 14.0822 82.6483 13.4099C82.7407 13.348 82.7688 13.2202 82.7085 13.1253C82.6483 13.0304 82.5238 13.0016 82.4314 13.0634C81.3752 13.7605 80.1584 14.0781 78.9295 14.0038L79.0661 12.6592C79.0982 12.3458 79.3753 12.1272 79.6765 12.1808C79.9857 12.2344 80.4275 12.3087 80.9897 12.3912C82.1664 12.5644 82.1262 11.8261 82.1262 11.8261L82.1704 8.97201ZM77.4798 5.60648C77.4798 5.34252 77.271 5.12805 77.0139 5.12805C76.7569 5.12805 76.5481 5.34252 76.5481 5.60648C76.5481 6.5551 76.7047 7.03766 77.0139 7.03766C77.2348 7.03766 77.4155 7.22325 77.4155 7.4501C77.4155 7.67694 77.2348 7.86254 77.0139 7.86254C76.1706 7.86254 75.7449 7.10365 75.7449 5.60648C75.7449 4.88883 76.3152 4.30316 77.0139 4.30316C77.7127 4.30316 78.283 4.88883 78.283 5.60648C78.283 5.83332 78.1022 6.01892 77.8814 6.01892C77.6605 6.01892 77.4798 5.83745 77.4798 5.60648ZM81.6283 5.83332C81.3512 6.11791 80.9857 6.26226 80.6203 6.26226C80.2548 6.26226 79.8894 6.11791 79.6123 5.83332C79.4556 5.67247 79.4556 5.41263 79.6123 5.25178C79.7689 5.09093 80.0219 5.09093 80.1785 5.25178C80.4195 5.49924 80.813 5.49924 81.054 5.25178C81.2106 5.09093 81.4636 5.09093 81.6202 5.25178C81.7849 5.41263 81.7849 5.67247 81.6283 5.83332Z" fill="white"/>
<path d="M84.215 1.7666C82.5885 0.42204 80.5364 -0.188376 78.444 0.0508411C74.8658 0.455035 71.9824 3.41637 71.5888 7.09124C71.3398 9.40092 72.0265 11.6199 73.5245 13.3356C74.9823 15.006 77.0585 15.9753 79.2392 16C79.2432 16 79.2472 16 79.2553 16H79.3316C79.3356 16 79.3396 16 79.3476 16C80.9942 15.9794 82.5564 15.4432 83.8776 14.441C83.966 14.375 83.9861 14.243 83.9218 14.1523C83.8575 14.0615 83.729 14.0409 83.6407 14.1069C82.3757 15.0679 80.8737 15.5793 79.2954 15.5876C77.2111 15.5752 75.2192 14.6554 73.8257 13.0593C72.404 11.4301 71.7535 9.32668 71.9904 7.13248C72.3679 3.65559 75.0987 0.846856 78.4922 0.463284C80.4801 0.23644 82.4238 0.81386 83.966 2.09243C85.5121 3.371 86.4759 5.18575 86.6808 7.2026C86.6968 7.35108 86.6486 7.49956 86.5482 7.61092C86.4438 7.73052 86.2992 7.79651 86.1426 7.79651H84.9539C84.8414 7.79651 84.7531 7.88725 84.7531 8.00274C84.7531 8.11822 84.8414 8.20896 84.9539 8.20896H86.1426C86.4117 8.20896 86.6647 8.09347 86.8454 7.88725C87.0221 7.68928 87.1064 7.42119 87.0783 7.15723C86.8615 5.02903 85.8454 3.11529 84.215 1.7666Z" fill="white"/>
</svg>
